<svg width="1857" height="628" viewBox="0 0 1857 628" fill="none" xmlns="http://www.w3.org/2000/svg">
	<rect x="187" y="0.939209" width="50" height="624" fill="#1A73E3" />
	<rect x="287" y="0.939209" width="50" height="624" fill="#1A73E3" />
	<rect x="387" y="0.939209" width="50" height="624" fill="#1A73E3" />
	<rect x="624" y="187.939" width="50" height="624" transform="rotate(90 624 187.939)" fill="#1A73E3" />
	<rect x="624" y="287.939" width="50" height="624" transform="rotate(90 624 287.939)" fill="#1A73E3" />
	<rect x="624" y="387.939" width="50" height="624" transform="rotate(90 624 387.939)" fill="#1A73E3" />
	<rect x="724" y="0.939209" width="50" height="624" fill="#1A73E3" />
	<path d="M911.416 418.497L910.889 432.049H906.071V422.939H903.361V418.497H911.416ZM878.668 422.939V384.394H883.109V418.648H902.984V384.394H907.426V422.939H878.668ZM929.988 423.541C927.202 423.541 924.8 422.927 922.779 421.697C920.772 420.455 919.222 418.723 918.131 416.502C917.052 414.269 916.512 411.672 916.512 408.711C916.512 405.749 917.052 403.139 918.131 400.881C919.222 398.61 920.74 396.841 922.685 395.573C924.643 394.294 926.926 393.654 929.536 393.654C931.042 393.654 932.529 393.905 933.997 394.407C935.465 394.908 936.801 395.724 938.006 396.853C939.21 397.97 940.17 399.451 940.885 401.295C941.6 403.139 941.958 405.411 941.958 408.108V409.99H919.674V406.151H937.441C937.441 404.52 937.115 403.064 936.462 401.784C935.822 400.505 934.906 399.494 933.714 398.754C932.535 398.014 931.142 397.644 929.536 397.644C927.767 397.644 926.236 398.083 924.944 398.961C923.664 399.827 922.679 400.956 921.989 402.349C921.299 403.742 920.954 405.235 920.954 406.828V409.388C920.954 411.571 921.33 413.422 922.083 414.94C922.848 416.446 923.909 417.594 925.264 418.385C926.619 419.162 928.194 419.551 929.988 419.551C931.155 419.551 932.209 419.388 933.15 419.062C934.103 418.723 934.925 418.221 935.615 417.556C936.305 416.879 936.839 416.038 937.215 415.034L941.506 416.239C941.055 417.694 940.295 418.974 939.229 420.078C938.162 421.17 936.845 422.023 935.277 422.638C933.708 423.24 931.945 423.541 929.988 423.541ZM968.063 406.452V410.593H952.103V406.452H968.063ZM953.157 394.03V422.939H948.715V394.03H953.157ZM971.451 394.03V422.939H967.009V394.03H971.451ZM975.629 398.171V394.03H999.117V398.171H989.632V422.939H985.19V398.171H975.629ZM1005.6 433.78V394.03H1009.89V398.622H1010.41C1010.74 398.121 1011.19 397.481 1011.77 396.703C1012.36 395.912 1013.2 395.21 1014.29 394.595C1015.4 393.967 1016.89 393.654 1018.77 393.654C1021.21 393.654 1023.35 394.262 1025.21 395.479C1027.07 396.696 1028.51 398.422 1029.56 400.655C1030.6 402.889 1031.12 405.523 1031.12 408.56C1031.12 411.622 1030.6 414.275 1029.56 416.521C1028.51 418.755 1027.07 420.486 1025.23 421.716C1023.38 422.933 1021.26 423.541 1018.85 423.541C1016.99 423.541 1015.5 423.234 1014.39 422.619C1013.27 421.992 1012.41 421.283 1011.81 420.492C1011.21 419.689 1010.74 419.024 1010.41 418.497H1010.04V433.78H1005.6ZM1009.96 408.485C1009.96 410.668 1010.28 412.594 1010.92 414.263C1011.56 415.919 1012.5 417.218 1013.73 418.159C1014.96 419.087 1016.46 419.551 1018.24 419.551C1020.1 419.551 1021.65 419.062 1022.89 418.083C1024.15 417.092 1025.09 415.762 1025.72 414.093C1026.36 412.412 1026.68 410.542 1026.68 408.485C1026.68 406.452 1026.36 404.62 1025.74 402.989C1025.12 401.345 1024.19 400.047 1022.93 399.093C1021.69 398.127 1020.13 397.644 1018.24 397.644C1016.44 397.644 1014.92 398.102 1013.69 399.018C1012.46 399.921 1011.53 401.188 1010.9 402.82C1010.28 404.438 1009.96 406.327 1009.96 408.485ZM1051.14 398.171V394.03H1074.63V398.171H1065.15V422.939H1060.7V398.171H1051.14ZM1081.11 433.78V394.03H1085.4V398.622H1085.93C1086.26 398.121 1086.71 397.481 1087.28 396.703C1087.87 395.912 1088.71 395.21 1089.81 394.595C1090.91 393.967 1092.4 393.654 1094.29 393.654C1096.72 393.654 1098.87 394.262 1100.72 395.479C1102.58 396.696 1104.03 398.422 1105.07 400.655C1106.11 402.889 1106.63 405.523 1106.63 408.56C1106.63 411.622 1106.11 414.275 1105.07 416.521C1104.03 418.755 1102.59 420.486 1100.74 421.716C1098.9 422.933 1096.77 423.541 1094.36 423.541C1092.5 423.541 1091.02 423.234 1089.9 422.619C1088.78 421.992 1087.92 421.283 1087.32 420.492C1086.72 419.689 1086.26 419.024 1085.93 418.497H1085.55V433.78H1081.11ZM1085.48 408.485C1085.48 410.668 1085.8 412.594 1086.44 414.263C1087.08 415.919 1088.01 417.218 1089.24 418.159C1090.47 419.087 1091.98 419.551 1093.76 419.551C1095.62 419.551 1097.17 419.062 1098.41 418.083C1099.66 417.092 1100.6 415.762 1101.23 414.093C1101.87 412.412 1102.19 410.542 1102.19 408.485C1102.19 406.452 1101.88 404.62 1101.25 402.989C1100.63 401.345 1099.7 400.047 1098.45 399.093C1097.2 398.127 1095.64 397.644 1093.76 397.644C1091.95 397.644 1090.43 398.102 1089.2 399.018C1087.97 399.921 1087.05 401.188 1086.42 402.82C1085.79 404.438 1085.48 406.327 1085.48 408.485ZM1121.92 423.617C1120.08 423.617 1118.42 423.272 1116.93 422.582C1115.43 421.879 1114.25 420.869 1113.37 419.551C1112.49 418.221 1112.05 416.615 1112.05 414.733C1112.05 413.077 1112.38 411.734 1113.03 410.706C1113.68 409.664 1114.56 408.849 1115.65 408.259C1116.74 407.669 1117.94 407.23 1119.26 406.941C1120.59 406.64 1121.93 406.402 1123.27 406.226C1125.03 406 1126.45 405.831 1127.54 405.718C1128.65 405.592 1129.45 405.385 1129.95 405.097C1130.47 404.808 1130.72 404.306 1130.72 403.591V403.441C1130.72 401.584 1130.22 400.141 1129.2 399.112C1128.2 398.083 1126.67 397.568 1124.63 397.568C1122.5 397.568 1120.84 398.033 1119.64 398.961C1118.43 399.89 1117.59 400.881 1117.1 401.935L1112.88 400.429C1113.63 398.673 1114.64 397.305 1115.89 396.326C1117.16 395.335 1118.54 394.645 1120.03 394.256C1121.54 393.854 1123.02 393.654 1124.47 393.654C1125.4 393.654 1126.47 393.767 1127.67 393.992C1128.89 394.206 1130.06 394.651 1131.19 395.329C1132.34 396.006 1133.28 397.029 1134.04 398.397C1134.79 399.764 1135.17 401.596 1135.17 403.892V422.939H1130.72V419.024H1130.5C1130.2 419.652 1129.69 420.323 1128.99 421.038C1128.29 421.753 1127.35 422.362 1126.19 422.864C1125.02 423.366 1123.6 423.617 1121.92 423.617ZM1122.59 419.627C1124.35 419.627 1125.83 419.282 1127.03 418.592C1128.25 417.901 1129.17 417.011 1129.78 415.919C1130.41 414.827 1130.72 413.679 1130.72 412.475V408.409C1130.54 408.635 1130.12 408.842 1129.48 409.03C1128.85 409.206 1128.13 409.363 1127.3 409.501C1126.48 409.626 1125.69 409.739 1124.91 409.84C1124.14 409.928 1123.52 410.003 1123.04 410.066C1121.89 410.216 1120.81 410.461 1119.81 410.8C1118.82 411.126 1118.01 411.622 1117.4 412.287C1116.8 412.939 1116.49 413.83 1116.49 414.959C1116.49 416.502 1117.07 417.669 1118.21 418.46C1119.36 419.238 1120.82 419.627 1122.59 419.627ZM1162.62 406.452V410.593H1146.66V406.452H1162.62ZM1147.71 394.03V422.939H1143.27V394.03H1147.71ZM1166.01 394.03V422.939H1161.57V394.03H1166.01ZM1185.86 423.541C1183.15 423.541 1180.82 422.902 1178.86 421.622C1176.91 420.342 1175.4 418.579 1174.35 416.333C1173.29 414.087 1172.76 411.521 1172.76 408.635C1172.76 405.699 1173.3 403.108 1174.38 400.862C1175.48 398.604 1176.99 396.841 1178.94 395.573C1180.9 394.294 1183.18 393.654 1185.79 393.654C1187.82 393.654 1189.65 394.03 1191.28 394.783C1192.92 395.536 1194.25 396.59 1195.29 397.945C1196.34 399.3 1196.98 400.881 1197.23 402.688H1192.79C1192.45 401.37 1191.7 400.203 1190.53 399.187C1189.38 398.158 1187.82 397.644 1185.86 397.644C1184.13 397.644 1182.61 398.095 1181.31 398.999C1180.02 399.89 1179.01 401.151 1178.28 402.782C1177.56 404.401 1177.21 406.301 1177.21 408.485C1177.21 410.718 1177.56 412.663 1178.26 414.319C1178.98 415.975 1179.98 417.262 1181.27 418.177C1182.58 419.093 1184.11 419.551 1185.86 419.551C1187.02 419.551 1188.07 419.351 1189.01 418.949C1189.95 418.548 1190.75 417.97 1191.4 417.218C1192.05 416.465 1192.51 415.561 1192.79 414.507H1197.23C1196.98 416.214 1196.36 417.751 1195.37 419.119C1194.39 420.474 1193.09 421.553 1191.47 422.356C1189.87 423.146 1188 423.541 1185.86 423.541ZM1215.47 432.801V384.394H1219.91V432.801H1215.47ZM1215.47 423.541C1213.51 423.541 1211.73 423.19 1210.12 422.488C1208.52 421.772 1207.14 420.762 1205.98 419.457C1204.83 418.14 1203.94 416.565 1203.31 414.733C1202.68 412.901 1202.37 410.869 1202.37 408.635C1202.37 406.377 1202.68 404.331 1203.31 402.5C1203.94 400.655 1204.83 399.074 1205.98 397.757C1207.14 396.439 1208.52 395.429 1210.12 394.726C1211.73 394.011 1213.51 393.654 1215.47 393.654H1216.82V423.541H1215.47ZM1215.47 419.551H1216.22V397.644H1215.47C1213.99 397.644 1212.7 397.945 1211.61 398.547C1210.52 399.137 1209.62 399.946 1208.9 400.975C1208.2 401.991 1207.67 403.158 1207.32 404.476C1206.98 405.793 1206.81 407.18 1206.81 408.635C1206.81 410.568 1207.12 412.362 1207.73 414.018C1208.35 415.674 1209.3 417.011 1210.58 418.027C1211.86 419.043 1213.49 419.551 1215.47 419.551ZM1219.91 423.541H1218.56V393.654H1219.91C1221.87 393.654 1223.65 394.011 1225.26 394.726C1226.86 395.429 1228.24 396.439 1229.4 397.757C1230.55 399.074 1231.44 400.655 1232.07 402.5C1232.7 404.331 1233.01 406.377 1233.01 408.635C1233.01 410.869 1232.7 412.901 1232.07 414.733C1231.44 416.565 1230.55 418.14 1229.4 419.457C1228.24 420.762 1226.86 421.772 1225.26 422.488C1223.65 423.19 1221.87 423.541 1219.91 423.541ZM1219.91 419.551C1221.4 419.551 1222.69 419.263 1223.77 418.686C1224.86 418.096 1225.76 417.293 1226.46 416.277C1227.18 415.248 1227.7 414.081 1228.04 412.776C1228.39 411.458 1228.57 410.078 1228.57 408.635C1228.57 406.703 1228.26 404.902 1227.65 403.234C1227.03 401.565 1226.08 400.216 1224.81 399.187C1223.53 398.158 1221.89 397.644 1219.91 397.644H1219.16V419.551H1219.91ZM1251.92 423.541C1249.14 423.541 1246.73 422.927 1244.71 421.697C1242.71 420.455 1241.16 418.723 1240.06 416.502C1238.99 414.269 1238.45 411.672 1238.45 408.711C1238.45 405.749 1238.99 403.139 1240.06 400.881C1241.16 398.61 1242.67 396.841 1244.62 395.573C1246.58 394.294 1248.86 393.654 1251.47 393.654C1252.98 393.654 1254.46 393.905 1255.93 394.407C1257.4 394.908 1258.73 395.724 1259.94 396.853C1261.14 397.97 1262.1 399.451 1262.82 401.295C1263.53 403.139 1263.89 405.411 1263.89 408.108V409.99H1241.61V406.151H1259.37C1259.37 404.52 1259.05 403.064 1258.4 401.784C1257.76 400.505 1256.84 399.494 1255.65 398.754C1254.47 398.014 1253.08 397.644 1251.47 397.644C1249.7 397.644 1248.17 398.083 1246.88 398.961C1245.6 399.827 1244.61 400.956 1243.92 402.349C1243.23 403.742 1242.89 405.235 1242.89 406.828V409.388C1242.89 411.571 1243.26 413.422 1244.02 414.94C1244.78 416.446 1245.84 417.594 1247.2 418.385C1248.55 419.162 1250.13 419.551 1251.92 419.551C1253.09 419.551 1254.14 419.388 1255.08 419.062C1256.04 418.723 1256.86 418.221 1257.55 417.556C1258.24 416.879 1258.77 416.038 1259.15 415.034L1263.44 416.239C1262.99 417.694 1262.23 418.974 1261.16 420.078C1260.1 421.17 1258.78 422.023 1257.21 422.638C1255.64 423.24 1253.88 423.541 1251.92 423.541ZM1270.65 433.78V394.03H1274.94V398.622H1275.47C1275.79 398.121 1276.24 397.481 1276.82 396.703C1277.41 395.912 1278.25 395.21 1279.34 394.595C1280.45 393.967 1281.94 393.654 1283.82 393.654C1286.26 393.654 1288.4 394.262 1290.26 395.479C1292.12 396.696 1293.57 398.422 1294.61 400.655C1295.65 402.889 1296.17 405.523 1296.17 408.56C1296.17 411.622 1295.65 414.275 1294.61 416.521C1293.57 418.755 1292.12 420.486 1290.28 421.716C1288.43 422.933 1286.31 423.541 1283.9 423.541C1282.04 423.541 1280.55 423.234 1279.44 422.619C1278.32 421.992 1277.46 421.283 1276.86 420.492C1276.26 419.689 1275.79 419.024 1275.47 418.497H1275.09V433.78H1270.65ZM1275.01 408.485C1275.01 410.668 1275.33 412.594 1275.97 414.263C1276.61 415.919 1277.55 417.218 1278.78 418.159C1280.01 419.087 1281.51 419.551 1283.3 419.551C1285.15 419.551 1286.7 419.062 1287.94 418.083C1289.2 417.092 1290.14 415.762 1290.77 414.093C1291.41 412.412 1291.73 410.542 1291.73 408.485C1291.73 406.452 1291.41 404.62 1290.79 402.989C1290.17 401.345 1289.24 400.047 1287.98 399.093C1286.74 398.127 1285.18 397.644 1283.3 397.644C1281.49 397.644 1279.97 398.102 1278.74 399.018C1277.51 399.921 1276.58 401.188 1275.96 402.82C1275.33 404.438 1275.01 406.327 1275.01 408.485ZM1311.45 423.617C1309.62 423.617 1307.96 423.272 1306.46 422.582C1304.97 421.879 1303.79 420.869 1302.91 419.551C1302.03 418.221 1301.59 416.615 1301.59 414.733C1301.59 413.077 1301.92 411.734 1302.57 410.706C1303.22 409.664 1304.09 408.849 1305.18 408.259C1306.28 407.669 1307.48 407.23 1308.8 406.941C1310.13 406.64 1311.46 406.402 1312.81 406.226C1314.56 406 1315.99 405.831 1317.08 405.718C1318.18 405.592 1318.99 405.385 1319.49 405.097C1320 404.808 1320.26 404.306 1320.26 403.591V403.441C1320.26 401.584 1319.75 400.141 1318.74 399.112C1317.73 398.083 1316.21 397.568 1314.16 397.568C1312.04 397.568 1310.38 398.033 1309.17 398.961C1307.97 399.89 1307.12 400.881 1306.63 401.935L1302.42 400.429C1303.17 398.673 1304.17 397.305 1305.43 396.326C1306.7 395.335 1308.08 394.645 1309.57 394.256C1311.08 393.854 1312.56 393.654 1314.01 393.654C1314.94 393.654 1316.01 393.767 1317.21 393.992C1318.43 394.206 1319.6 394.651 1320.73 395.329C1321.87 396.006 1322.82 397.029 1323.57 398.397C1324.33 399.764 1324.7 401.596 1324.7 403.892V422.939H1320.26V419.024H1320.03C1319.73 419.652 1319.23 420.323 1318.53 421.038C1317.83 421.753 1316.89 422.362 1315.72 422.864C1314.56 423.366 1313.13 423.617 1311.45 423.617ZM1312.13 419.627C1313.89 419.627 1315.37 419.282 1316.57 418.592C1317.79 417.901 1318.7 417.011 1319.32 415.919C1319.95 414.827 1320.26 413.679 1320.26 412.475V408.409C1320.07 408.635 1319.66 408.842 1319.02 409.03C1318.39 409.206 1317.66 409.363 1316.84 409.501C1316.02 409.626 1315.22 409.739 1314.44 409.84C1313.68 409.928 1313.06 410.003 1312.58 410.066C1311.43 410.216 1310.35 410.461 1309.34 410.8C1308.35 411.126 1307.55 411.622 1306.94 412.287C1306.33 412.939 1306.03 413.83 1306.03 414.959C1306.03 416.502 1306.6 417.669 1307.74 418.46C1308.9 419.238 1310.36 419.627 1312.13 419.627ZM1346.06 398.171V394.03H1369.55V398.171H1360.06V422.939H1355.62V398.171H1346.06ZM1386.65 423.541C1383.86 423.541 1381.46 422.927 1379.44 421.697C1377.43 420.455 1375.88 418.723 1374.79 416.502C1373.71 414.269 1373.17 411.672 1373.17 408.711C1373.17 405.749 1373.71 403.139 1374.79 400.881C1375.88 398.61 1377.4 396.841 1379.34 395.573C1381.3 394.294 1383.59 393.654 1386.2 393.654C1387.7 393.654 1389.19 393.905 1390.66 394.407C1392.12 394.908 1393.46 395.724 1394.66 396.853C1395.87 397.97 1396.83 399.451 1397.54 401.295C1398.26 403.139 1398.62 405.411 1398.62 408.108V409.99H1376.33V406.151H1394.1C1394.1 404.52 1393.77 403.064 1393.12 401.784C1392.48 400.505 1391.57 399.494 1390.37 398.754C1389.19 398.014 1387.8 397.644 1386.2 397.644C1384.43 397.644 1382.9 398.083 1381.6 398.961C1380.32 399.827 1379.34 400.956 1378.65 402.349C1377.96 403.742 1377.61 405.235 1377.61 406.828V409.388C1377.61 411.571 1377.99 413.422 1378.74 414.94C1379.51 416.446 1380.57 417.594 1381.92 418.385C1383.28 419.162 1384.85 419.551 1386.65 419.551C1387.81 419.551 1388.87 419.388 1389.81 419.062C1390.76 418.723 1391.58 418.221 1392.27 417.556C1392.96 416.879 1393.5 416.038 1393.87 415.034L1398.17 416.239C1397.71 417.694 1396.95 418.974 1395.89 420.078C1394.82 421.17 1393.5 422.023 1391.94 422.638C1390.37 423.24 1388.6 423.541 1386.65 423.541ZM1407.91 394.03L1414.84 405.85L1421.76 394.03H1426.88L1417.55 408.485L1426.88 422.939H1421.76L1414.84 411.722L1407.91 422.939H1402.79L1411.98 408.485L1402.79 394.03H1407.91ZM1452.57 406.452V410.593H1436.61V406.452H1452.57ZM1437.66 394.03V422.939H1433.22V394.03H1437.66ZM1455.96 394.03V422.939H1451.51V394.03H1455.96ZM1475.81 423.541C1473.2 423.541 1470.91 422.92 1468.94 421.678C1466.98 420.436 1465.45 418.698 1464.35 416.465C1463.26 414.231 1462.71 411.622 1462.71 408.635C1462.71 405.624 1463.26 402.995 1464.35 400.749C1465.45 398.503 1466.98 396.759 1468.94 395.517C1470.91 394.275 1473.2 393.654 1475.81 393.654C1478.42 393.654 1480.71 394.275 1482.66 395.517C1484.63 396.759 1486.16 398.503 1487.25 400.749C1488.36 402.995 1488.91 405.624 1488.91 408.635C1488.91 411.622 1488.36 414.231 1487.25 416.465C1486.16 418.698 1484.63 420.436 1482.66 421.678C1480.71 422.92 1478.42 423.541 1475.81 423.541ZM1475.81 419.551C1477.79 419.551 1479.43 419.043 1480.71 418.027C1481.98 417.011 1482.93 415.674 1483.55 414.018C1484.16 412.362 1484.47 410.568 1484.47 408.635C1484.47 406.703 1484.16 404.902 1483.55 403.234C1482.93 401.565 1481.98 400.216 1480.71 399.187C1479.43 398.158 1477.79 397.644 1475.81 397.644C1473.83 397.644 1472.2 398.158 1470.92 399.187C1469.64 400.216 1468.69 401.565 1468.08 403.234C1467.46 404.902 1467.15 406.703 1467.15 408.635C1467.15 410.568 1467.46 412.362 1468.08 414.018C1468.69 415.674 1469.64 417.011 1470.92 418.027C1472.2 419.043 1473.83 419.551 1475.81 419.551ZM1493.13 422.939V418.799H1494.19C1495.05 418.799 1495.77 418.629 1496.35 418.29C1496.93 417.939 1497.39 417.331 1497.74 416.465C1498.11 415.586 1498.38 414.369 1498.57 412.813C1498.77 411.245 1498.92 409.25 1499 406.828L1499.53 394.03H1518.8V422.939H1514.36V398.171H1503.75L1503.3 408.485C1503.19 410.856 1502.98 412.945 1502.66 414.752C1502.34 416.546 1501.86 418.052 1501.21 419.269C1500.57 420.486 1499.71 421.402 1498.65 422.017C1497.58 422.632 1496.24 422.939 1494.64 422.939H1493.13ZM1538.7 423.541C1536.09 423.541 1533.8 422.92 1531.83 421.678C1529.87 420.436 1528.34 418.698 1527.24 416.465C1526.14 414.231 1525.6 411.622 1525.6 408.635C1525.6 405.624 1526.14 402.995 1527.24 400.749C1528.34 398.503 1529.87 396.759 1531.83 395.517C1533.8 394.275 1536.09 393.654 1538.7 393.654C1541.31 393.654 1543.59 394.275 1545.55 395.517C1547.52 396.759 1549.05 398.503 1550.14 400.749C1551.24 402.995 1551.8 405.624 1551.8 408.635C1551.8 411.622 1551.24 414.231 1550.14 416.465C1549.05 418.698 1547.52 420.436 1545.55 421.678C1543.59 422.92 1541.31 423.541 1538.7 423.541ZM1538.7 419.551C1540.68 419.551 1542.31 419.043 1543.59 418.027C1544.87 417.011 1545.82 415.674 1546.43 414.018C1547.05 412.362 1547.36 410.568 1547.36 408.635C1547.36 406.703 1547.05 404.902 1546.43 403.234C1545.82 401.565 1544.87 400.216 1543.59 399.187C1542.31 398.158 1540.68 397.644 1538.7 397.644C1536.71 397.644 1535.08 398.158 1533.8 399.187C1532.52 400.216 1531.58 401.565 1530.96 403.234C1530.35 404.902 1530.04 406.703 1530.04 408.635C1530.04 410.568 1530.35 412.362 1530.96 414.018C1531.58 415.674 1532.52 417.011 1533.8 418.027C1535.08 419.043 1536.71 419.551 1538.7 419.551ZM1576.42 394.03V398.171H1563.02V422.939H1558.58V394.03H1576.42ZM1587.34 416.389L1601.27 394.03H1606.39V422.939H1601.95V400.58L1588.1 422.939H1582.9V394.03H1587.34V416.389ZM1618.97 416.389L1632.9 394.03H1638.02V422.939H1633.57V400.58L1619.72 422.939H1614.53V394.03H1618.97V416.389ZM1629.96 384.394H1634.1C1634.1 386.426 1633.4 388.089 1631.99 389.381C1630.59 390.674 1628.68 391.32 1626.27 391.32C1623.9 391.32 1622.01 390.674 1620.61 389.381C1619.21 388.089 1618.52 386.426 1618.52 384.394H1622.66C1622.66 385.372 1622.93 386.232 1623.47 386.972C1624.02 387.713 1624.95 388.083 1626.27 388.083C1627.59 388.083 1628.53 387.713 1629.09 386.972C1629.67 386.232 1629.96 385.372 1629.96 384.394ZM878.065 486.939V458.03H900.801V486.939H896.359V462.171H882.507V486.939H878.065ZM908.913 497.78V458.03H913.204V462.622H913.731C914.057 462.121 914.509 461.481 915.086 460.703C915.676 459.912 916.517 459.21 917.608 458.595C918.712 457.967 920.206 457.654 922.088 457.654C924.522 457.654 926.667 458.262 928.525 459.479C930.382 460.696 931.831 462.422 932.872 464.655C933.914 466.889 934.434 469.523 934.434 472.56C934.434 475.622 933.914 478.275 932.872 480.521C931.831 482.755 930.388 484.486 928.543 485.716C926.699 486.933 924.572 487.541 922.163 487.541C920.306 487.541 918.819 487.234 917.702 486.619C916.586 485.992 915.726 485.283 915.124 484.492C914.522 483.689 914.057 483.024 913.731 482.497H913.355V497.78H908.913ZM913.279 472.485C913.279 474.668 913.599 476.594 914.239 478.263C914.879 479.919 915.814 481.218 917.044 482.159C918.273 483.087 919.779 483.551 921.561 483.551C923.418 483.551 924.967 483.062 926.21 482.083C927.464 481.092 928.405 479.762 929.033 478.093C929.673 476.412 929.993 474.542 929.993 472.485C929.993 470.452 929.679 468.62 929.051 466.989C928.437 465.345 927.502 464.047 926.247 463.093C925.005 462.127 923.443 461.644 921.561 461.644C919.754 461.644 918.236 462.102 917.006 463.018C915.776 463.921 914.848 465.188 914.221 466.82C913.593 468.438 913.279 470.327 913.279 472.485ZM945.652 480.389L959.579 458.03H964.699V486.939H960.257V464.58L946.404 486.939H941.21V458.03H945.652V480.389ZM1011 486.939L997.753 469.247H993.01V486.939H988.342V448.394H993.01V465.107H995.043L1010.48 448.394H1016.05L1000.46 465.333L1016.57 486.939H1011ZM1027.65 468.495H1035.94C1039.32 468.495 1041.91 469.354 1043.71 471.073C1045.5 472.792 1046.4 474.969 1046.4 477.604C1046.4 479.336 1046 480.91 1045.2 482.328C1044.39 483.733 1043.21 484.856 1041.66 485.697C1040.1 486.525 1038.19 486.939 1035.94 486.939H1023.82V458.03H1028.26V482.799H1035.94C1037.69 482.799 1039.14 482.334 1040.26 481.406C1041.39 480.477 1041.96 479.285 1041.96 477.83C1041.96 476.299 1041.39 475.051 1040.26 474.084C1039.14 473.118 1037.69 472.635 1035.94 472.635H1027.65V468.495ZM1050.99 486.939V458.03H1055.43V486.939H1050.99ZM1063.57 497.78V458.03H1067.86V462.622H1068.38C1068.71 462.121 1069.16 461.481 1069.74 460.703C1070.33 459.912 1071.17 459.21 1072.26 458.595C1073.36 457.967 1074.86 457.654 1076.74 457.654C1079.17 457.654 1081.32 458.262 1083.18 459.479C1085.03 460.696 1086.48 462.422 1087.52 464.655C1088.57 466.889 1089.09 469.523 1089.09 472.56C1089.09 475.622 1088.57 478.275 1087.52 480.521C1086.48 482.755 1085.04 484.486 1083.2 485.716C1081.35 486.933 1079.22 487.541 1076.82 487.541C1074.96 487.541 1073.47 487.234 1072.35 486.619C1071.24 485.992 1070.38 485.283 1069.78 484.492C1069.17 483.689 1068.71 483.024 1068.38 482.497H1068.01V497.78H1063.57ZM1067.93 472.485C1067.93 474.668 1068.25 476.594 1068.89 478.263C1069.53 479.919 1070.47 481.218 1071.7 482.159C1072.93 483.087 1074.43 483.551 1076.21 483.551C1078.07 483.551 1079.62 483.062 1080.86 482.083C1082.12 481.092 1083.06 479.762 1083.69 478.093C1084.32 476.412 1084.64 474.542 1084.64 472.485C1084.64 470.452 1084.33 468.62 1083.7 466.989C1083.09 465.345 1082.15 464.047 1080.9 463.093C1079.66 462.127 1078.1 461.644 1076.21 461.644C1074.41 461.644 1072.89 462.102 1071.66 463.018C1070.43 463.921 1069.5 465.188 1068.87 466.82C1068.25 468.438 1067.93 470.327 1067.93 472.485ZM1113.7 458.03V462.171H1100.3V486.939H1095.86V458.03H1113.7ZM1124.03 468.495H1132.31C1135.7 468.495 1138.29 469.354 1140.08 471.073C1141.88 472.792 1142.77 474.969 1142.77 477.604C1142.77 479.336 1142.37 480.91 1141.57 482.328C1140.77 483.733 1139.59 484.856 1138.03 485.697C1136.47 486.525 1134.57 486.939 1132.31 486.939H1120.19V458.03H1124.63V482.799H1132.31C1134.07 482.799 1135.51 482.334 1136.64 481.406C1137.77 480.477 1138.33 479.285 1138.33 477.83C1138.33 476.299 1137.77 475.051 1136.64 474.084C1135.51 473.118 1134.07 472.635 1132.31 472.635H1124.03V468.495ZM1147.37 486.939V458.03H1151.81V486.939H1147.37ZM1158.13 479.561H1162.87C1162.97 480.866 1163.56 481.858 1164.64 482.535C1165.74 483.213 1167.15 483.551 1168.9 483.551C1170.68 483.551 1172.2 483.188 1173.47 482.46C1174.74 481.72 1175.37 480.528 1175.37 478.884C1175.37 477.918 1175.13 477.077 1174.66 476.362C1174.18 475.634 1173.51 475.069 1172.64 474.668C1171.78 474.266 1170.75 474.066 1169.57 474.066H1164.61V470.076H1169.57C1171.34 470.076 1172.65 469.674 1173.49 468.871C1174.34 468.068 1174.77 467.064 1174.77 465.86C1174.77 464.567 1174.31 463.532 1173.4 462.754C1172.48 461.964 1171.18 461.568 1169.5 461.568C1167.81 461.568 1166.39 461.951 1165.26 462.717C1164.14 463.469 1163.54 464.442 1163.48 465.634H1158.81C1158.86 464.078 1159.34 462.704 1160.24 461.512C1161.14 460.307 1162.37 459.366 1163.93 458.689C1165.48 457.999 1167.27 457.654 1169.27 457.654C1171.31 457.654 1173.07 458.011 1174.56 458.726C1176.07 459.429 1177.23 460.389 1178.04 461.606C1178.87 462.811 1179.29 464.178 1179.29 465.709C1179.29 467.34 1178.83 468.658 1177.91 469.662C1177 470.665 1175.85 471.38 1174.47 471.807V472.108C1175.56 472.184 1176.51 472.535 1177.31 473.162C1178.13 473.777 1178.76 474.586 1179.21 475.59C1179.66 476.581 1179.89 477.679 1179.89 478.884C1179.89 480.64 1179.42 482.171 1178.48 483.476C1177.54 484.769 1176.24 485.772 1174.6 486.488C1172.96 487.19 1171.08 487.541 1168.97 487.541C1166.93 487.541 1165.1 487.209 1163.48 486.544C1161.86 485.866 1160.57 484.932 1159.62 483.74C1158.68 482.535 1158.18 481.142 1158.13 479.561ZM1197.87 487.541C1195.16 487.541 1192.83 486.902 1190.87 485.622C1188.91 484.342 1187.41 482.579 1186.35 480.333C1185.3 478.087 1184.77 475.521 1184.77 472.635C1184.77 469.699 1185.31 467.108 1186.39 464.862C1187.48 462.604 1189 460.841 1190.95 459.573C1192.9 458.294 1195.19 457.654 1197.8 457.654C1199.83 457.654 1201.66 458.03 1203.29 458.783C1204.92 459.536 1206.26 460.59 1207.3 461.945C1208.34 463.3 1208.99 464.881 1209.24 466.688H1204.8C1204.46 465.37 1203.71 464.203 1202.54 463.187C1201.39 462.158 1199.83 461.644 1197.87 461.644C1196.14 461.644 1194.62 462.095 1193.32 462.999C1192.03 463.89 1191.02 465.151 1190.29 466.782C1189.57 468.401 1189.21 470.301 1189.21 472.485C1189.21 474.718 1189.57 476.663 1190.27 478.319C1190.98 479.975 1191.99 481.262 1193.28 482.177C1194.58 483.093 1196.12 483.551 1197.87 483.551C1199.03 483.551 1200.07 483.351 1201.02 482.949C1201.96 482.548 1202.75 481.97 1203.41 481.218C1204.06 480.465 1204.52 479.561 1204.8 478.507H1209.24C1208.99 480.214 1208.37 481.751 1207.38 483.119C1206.4 484.474 1205.1 485.553 1203.48 486.356C1201.87 487.146 1200.01 487.541 1197.87 487.541ZM1215.73 486.939V458.03H1220.18V470.603H1223.11L1233.5 458.03H1239.22L1227.55 471.958L1239.37 486.939H1233.65L1224.17 474.743H1220.18V486.939H1215.73ZM1254.75 487.541C1252.14 487.541 1249.85 486.92 1247.88 485.678C1245.93 484.436 1244.4 482.698 1243.29 480.465C1242.2 478.231 1241.65 475.622 1241.65 472.635C1241.65 469.624 1242.2 466.995 1243.29 464.749C1244.4 462.503 1245.93 460.759 1247.88 459.517C1249.85 458.275 1252.14 457.654 1254.75 457.654C1257.36 457.654 1259.65 458.275 1261.6 459.517C1263.57 460.759 1265.11 462.503 1266.2 464.749C1267.3 466.995 1267.85 469.624 1267.85 472.635C1267.85 475.622 1267.3 478.231 1266.2 480.465C1265.11 482.698 1263.57 484.436 1261.6 485.678C1259.65 486.92 1257.36 487.541 1254.75 487.541ZM1254.75 483.551C1256.74 483.551 1258.37 483.043 1259.65 482.027C1260.93 481.011 1261.87 479.674 1262.49 478.018C1263.1 476.362 1263.41 474.568 1263.41 472.635C1263.41 470.703 1263.1 468.902 1262.49 467.234C1261.87 465.565 1260.93 464.216 1259.65 463.187C1258.37 462.158 1256.74 461.644 1254.75 461.644C1252.77 461.644 1251.14 462.158 1249.86 463.187C1248.58 464.216 1247.63 465.565 1247.02 467.234C1246.4 468.902 1246.1 470.703 1246.1 472.635C1246.1 474.568 1246.4 476.362 1247.02 478.018C1247.63 479.674 1248.58 481.011 1249.86 482.027C1251.14 483.043 1252.77 483.551 1254.75 483.551ZM1290.44 480.916L1300.53 458.03H1304.75L1292.25 486.939H1288.64L1276.37 458.03H1280.51L1290.44 480.916ZM1279.08 458.03V486.939H1274.63V458.03H1279.08ZM1301.81 486.939V458.03H1306.25V486.939H1301.81ZM1353.16 448.394V452.534H1334.56V486.939H1329.89V448.394H1353.16ZM1367.33 487.541C1364.72 487.541 1362.43 486.92 1360.46 485.678C1358.5 484.436 1356.97 482.698 1355.87 480.465C1354.77 478.231 1354.23 475.622 1354.23 472.635C1354.23 469.624 1354.77 466.995 1355.87 464.749C1356.97 462.503 1358.5 460.759 1360.46 459.517C1362.43 458.275 1364.72 457.654 1367.33 457.654C1369.94 457.654 1372.22 458.275 1374.18 459.517C1376.15 460.759 1377.68 462.503 1378.77 464.749C1379.87 466.995 1380.43 469.624 1380.43 472.635C1380.43 475.622 1379.87 478.231 1378.77 480.465C1377.68 482.698 1376.15 484.436 1374.18 485.678C1372.22 486.92 1369.94 487.541 1367.33 487.541ZM1367.33 483.551C1369.31 483.551 1370.94 483.043 1372.22 482.027C1373.5 481.011 1374.45 479.674 1375.06 478.018C1375.68 476.362 1375.98 474.568 1375.98 472.635C1375.98 470.703 1375.68 468.902 1375.06 467.234C1374.45 465.565 1373.5 464.216 1372.22 463.187C1370.94 462.158 1369.31 461.644 1367.33 461.644C1365.34 461.644 1363.71 462.158 1362.43 463.187C1361.15 464.216 1360.21 465.565 1359.59 467.234C1358.98 468.902 1358.67 470.703 1358.67 472.635C1358.67 474.568 1358.98 476.362 1359.59 478.018C1360.21 479.674 1361.15 481.011 1362.43 482.027C1363.71 483.043 1365.34 483.551 1367.33 483.551ZM1398.95 487.541C1396.24 487.541 1393.91 486.902 1391.95 485.622C1389.99 484.342 1388.49 482.579 1387.43 480.333C1386.38 478.087 1385.85 475.521 1385.85 472.635C1385.85 469.699 1386.39 467.108 1387.47 464.862C1388.56 462.604 1390.08 460.841 1392.03 459.573C1393.98 458.294 1396.27 457.654 1398.88 457.654C1400.91 457.654 1402.74 458.03 1404.37 458.783C1406 459.536 1407.34 460.59 1408.38 461.945C1409.42 463.3 1410.07 464.881 1410.32 466.688H1405.88C1405.54 465.37 1404.79 464.203 1403.62 463.187C1402.46 462.158 1400.91 461.644 1398.95 461.644C1397.22 461.644 1395.7 462.095 1394.4 462.999C1393.1 463.89 1392.09 465.151 1391.37 466.782C1390.65 468.401 1390.29 470.301 1390.29 472.485C1390.29 474.718 1390.64 476.663 1391.35 478.319C1392.06 479.975 1393.07 481.262 1394.36 482.177C1395.66 483.093 1397.19 483.551 1398.95 483.551C1400.11 483.551 1401.15 483.351 1402.09 482.949C1403.04 482.548 1403.83 481.97 1404.48 481.218C1405.14 480.465 1405.6 479.561 1405.88 478.507H1410.32C1410.07 480.214 1409.45 481.751 1408.46 483.119C1407.48 484.474 1406.18 485.553 1404.56 486.356C1402.95 487.146 1401.08 487.541 1398.95 487.541ZM1419.67 497.78C1418.92 497.78 1418.25 497.717 1417.66 497.592C1417.07 497.479 1416.66 497.366 1416.44 497.253L1417.57 493.338C1418.64 493.614 1419.6 493.715 1420.43 493.639C1421.25 493.564 1421.99 493.194 1422.63 492.529C1423.28 491.877 1423.88 490.816 1424.42 489.348L1425.24 487.09L1414.55 458.03H1419.37L1427.35 481.067H1427.65L1435.63 458.03H1440.45L1428.18 491.155C1427.63 492.648 1426.94 493.884 1426.13 494.863C1425.31 495.854 1424.37 496.588 1423.29 497.065C1422.22 497.542 1421.02 497.78 1419.67 497.78ZM1440.8 495.22V482.799H1443.2C1443.79 482.184 1444.3 481.519 1444.73 480.804C1445.16 480.088 1445.53 479.241 1445.84 478.263C1446.17 477.271 1446.44 476.067 1446.67 474.649C1446.89 473.219 1447.09 471.493 1447.27 469.473L1448.25 458.03H1466.62V482.799H1471.06V495.22H1466.62V486.939H1445.24V495.22H1440.8ZM1448.25 482.799H1462.18V462.171H1452.39L1451.64 469.473C1451.32 472.497 1450.93 475.138 1450.47 477.397C1450 479.655 1449.26 481.456 1448.25 482.799ZM1485.46 487.617C1483.63 487.617 1481.97 487.272 1480.47 486.582C1478.98 485.879 1477.8 484.869 1476.92 483.551C1476.04 482.221 1475.6 480.615 1475.6 478.733C1475.6 477.077 1475.93 475.734 1476.58 474.706C1477.23 473.664 1478.1 472.849 1479.19 472.259C1480.29 471.669 1481.49 471.23 1482.81 470.941C1484.14 470.64 1485.47 470.402 1486.82 470.226C1488.57 470 1490 469.831 1491.09 469.718C1492.19 469.592 1493 469.385 1493.5 469.097C1494.01 468.808 1494.27 468.306 1494.27 467.591V467.441C1494.27 465.584 1493.76 464.141 1492.75 463.112C1491.74 462.083 1490.22 461.568 1488.17 461.568C1486.05 461.568 1484.39 462.033 1483.18 462.961C1481.98 463.89 1481.13 464.881 1480.64 465.935L1476.43 464.429C1477.18 462.673 1478.18 461.305 1479.44 460.326C1480.71 459.335 1482.09 458.645 1483.58 458.256C1485.09 457.854 1486.57 457.654 1488.02 457.654C1488.95 457.654 1490.02 457.767 1491.22 457.992C1492.44 458.206 1493.61 458.651 1494.74 459.329C1495.88 460.006 1496.83 461.029 1497.58 462.397C1498.34 463.764 1498.71 465.596 1498.71 467.892V486.939H1494.27V483.024H1494.04C1493.74 483.652 1493.24 484.323 1492.54 485.038C1491.84 485.753 1490.9 486.362 1489.73 486.864C1488.57 487.366 1487.14 487.617 1485.46 487.617ZM1486.14 483.627C1487.9 483.627 1489.38 483.282 1490.58 482.592C1491.8 481.901 1492.71 481.011 1493.33 479.919C1493.96 478.827 1494.27 477.679 1494.27 476.475V472.409C1494.08 472.635 1493.67 472.842 1493.03 473.03C1492.4 473.206 1491.67 473.363 1490.84 473.501C1490.03 473.626 1489.23 473.739 1488.45 473.84C1487.69 473.928 1487.07 474.003 1486.59 474.066C1485.44 474.216 1484.36 474.461 1483.35 474.8C1482.36 475.126 1481.56 475.622 1480.95 476.287C1480.34 476.939 1480.04 477.83 1480.04 478.959C1480.04 480.502 1480.61 481.669 1481.75 482.46C1482.91 483.238 1484.37 483.627 1486.14 483.627ZM1506.82 497.78V458.03H1511.11V462.622H1511.64C1511.96 462.121 1512.42 461.481 1512.99 460.703C1513.58 459.912 1514.42 459.21 1515.51 458.595C1516.62 457.967 1518.11 457.654 1519.99 457.654C1522.43 457.654 1524.57 458.262 1526.43 459.479C1528.29 460.696 1529.74 462.422 1530.78 464.655C1531.82 466.889 1532.34 469.523 1532.34 472.56C1532.34 475.622 1531.82 478.275 1530.78 480.521C1529.74 482.755 1528.29 484.486 1526.45 485.716C1524.61 486.933 1522.48 487.541 1520.07 487.541C1518.21 487.541 1516.73 487.234 1515.61 486.619C1514.49 485.992 1513.63 485.283 1513.03 484.492C1512.43 483.689 1511.96 483.024 1511.64 482.497H1511.26V497.78H1506.82ZM1511.19 472.485C1511.19 474.668 1511.51 476.594 1512.15 478.263C1512.79 479.919 1513.72 481.218 1514.95 482.159C1516.18 483.087 1517.69 483.551 1519.47 483.551C1521.32 483.551 1522.87 483.062 1524.12 482.083C1525.37 481.092 1526.31 479.762 1526.94 478.093C1527.58 476.412 1527.9 474.542 1527.9 472.485C1527.9 470.452 1527.59 468.62 1526.96 466.989C1526.34 465.345 1525.41 464.047 1524.15 463.093C1522.91 462.127 1521.35 461.644 1519.47 461.644C1517.66 461.644 1516.14 462.102 1514.91 463.018C1513.68 463.921 1512.75 465.188 1512.13 466.82C1511.5 468.438 1511.19 470.327 1511.19 472.485ZM1550.86 487.541C1548.15 487.541 1545.82 486.902 1543.86 485.622C1541.9 484.342 1540.4 482.579 1539.34 480.333C1538.29 478.087 1537.76 475.521 1537.76 472.635C1537.76 469.699 1538.3 467.108 1539.38 464.862C1540.47 462.604 1541.99 460.841 1543.93 459.573C1545.89 458.294 1548.18 457.654 1550.79 457.654C1552.82 457.654 1554.65 458.03 1556.28 458.783C1557.91 459.536 1559.25 460.59 1560.29 461.945C1561.33 463.3 1561.98 464.881 1562.23 466.688H1557.79C1557.45 465.37 1556.69 464.203 1555.53 463.187C1554.37 462.158 1552.82 461.644 1550.86 461.644C1549.13 461.644 1547.61 462.095 1546.31 462.999C1545.01 463.89 1544 465.151 1543.28 466.782C1542.56 468.401 1542.2 470.301 1542.2 472.485C1542.2 474.718 1542.55 476.663 1543.26 478.319C1543.97 479.975 1544.98 481.262 1546.27 482.177C1547.57 483.093 1549.1 483.551 1550.86 483.551C1552.01 483.551 1553.06 483.351 1554 482.949C1554.94 482.548 1555.74 481.97 1556.39 481.218C1557.05 480.465 1557.51 479.561 1557.79 478.507H1562.23C1561.98 480.214 1561.36 481.751 1560.37 483.119C1559.39 484.474 1558.09 485.553 1556.47 486.356C1554.86 487.146 1552.99 487.541 1550.86 487.541ZM1566.44 462.171V458.03H1589.93V462.171H1580.45V486.939H1576.01V462.171H1566.44ZM1596.41 486.939V458.03H1608.23C1611.34 458.03 1613.82 458.733 1615.65 460.138C1617.48 461.543 1618.39 463.4 1618.39 465.709C1618.39 467.466 1617.87 468.827 1616.83 469.793C1615.79 470.747 1614.46 471.393 1612.82 471.732C1613.89 471.882 1614.93 472.259 1615.93 472.861C1616.95 473.463 1617.79 474.291 1618.45 475.345C1619.12 476.387 1619.45 477.667 1619.45 479.185C1619.45 480.666 1619.07 481.989 1618.32 483.156C1617.57 484.323 1616.49 485.245 1615.08 485.923C1613.68 486.6 1612 486.939 1610.04 486.939H1596.41ZM1600.63 482.874H1610.04C1611.57 482.874 1612.77 482.51 1613.63 481.782C1614.5 481.055 1614.93 480.063 1614.93 478.809C1614.93 477.315 1614.5 476.142 1613.63 475.289C1612.77 474.423 1611.57 473.99 1610.04 473.99H1600.63V482.874ZM1600.63 470.151H1608.23C1609.42 470.151 1610.45 469.988 1611.3 469.662C1612.15 469.323 1612.81 468.846 1613.26 468.231C1613.72 467.604 1613.95 466.863 1613.95 466.01C1613.95 464.793 1613.45 463.84 1612.43 463.149C1611.41 462.447 1610.01 462.095 1608.23 462.095H1600.63V470.151ZM1638.29 487.541C1635.51 487.541 1633.11 486.927 1631.09 485.697C1629.08 484.455 1627.53 482.723 1626.44 480.502C1625.36 478.269 1624.82 475.672 1624.82 472.711C1624.82 469.749 1625.36 467.139 1626.44 464.881C1627.53 462.61 1629.05 460.841 1630.99 459.573C1632.95 458.294 1635.23 457.654 1637.84 457.654C1639.35 457.654 1640.83 457.905 1642.3 458.407C1643.77 458.908 1645.11 459.724 1646.31 460.853C1647.52 461.97 1648.48 463.451 1649.19 465.295C1649.91 467.139 1650.26 469.411 1650.26 472.108V473.99H1627.98V470.151H1645.75C1645.75 468.52 1645.42 467.064 1644.77 465.784C1644.13 464.505 1643.21 463.494 1642.02 462.754C1640.84 462.014 1639.45 461.644 1637.84 461.644C1636.07 461.644 1634.54 462.083 1633.25 462.961C1631.97 463.827 1630.98 464.956 1630.29 466.349C1629.6 467.742 1629.26 469.235 1629.26 470.828V473.388C1629.26 475.571 1629.64 477.422 1630.39 478.94C1631.15 480.446 1632.21 481.594 1633.57 482.385C1634.92 483.162 1636.5 483.551 1638.29 483.551C1639.46 483.551 1640.51 483.388 1641.46 483.062C1642.41 482.723 1643.23 482.221 1643.92 481.556C1644.61 480.879 1645.14 480.038 1645.52 479.034L1649.81 480.239C1649.36 481.694 1648.6 482.974 1647.53 484.078C1646.47 485.17 1645.15 486.023 1643.58 486.638C1642.01 487.24 1640.25 487.541 1638.29 487.541ZM1676.37 470.452V474.593H1660.41V470.452H1676.37ZM1661.46 458.03V486.939H1657.02V458.03H1661.46ZM1679.76 458.03V486.939H1675.31V458.03H1679.76ZM1707.22 470.452V474.593H1691.26V470.452H1707.22ZM1692.31 458.03V486.939H1687.87V458.03H1692.31ZM1710.6 458.03V486.939H1706.16V458.03H1710.6ZM1730.46 487.541C1727.85 487.541 1725.56 486.92 1723.59 485.678C1721.63 484.436 1720.1 482.698 1719 480.465C1717.91 478.231 1717.36 475.622 1717.36 472.635C1717.36 469.624 1717.91 466.995 1719 464.749C1720.1 462.503 1721.63 460.759 1723.59 459.517C1725.56 458.275 1727.85 457.654 1730.46 457.654C1733.07 457.654 1735.35 458.275 1737.31 459.517C1739.28 460.759 1740.81 462.503 1741.9 464.749C1743.01 466.995 1743.56 469.624 1743.56 472.635C1743.56 475.622 1743.01 478.231 1741.9 480.465C1740.81 482.698 1739.28 484.436 1737.31 485.678C1735.35 486.92 1733.07 487.541 1730.46 487.541ZM1730.46 483.551C1732.44 483.551 1734.07 483.043 1735.35 482.027C1736.63 481.011 1737.58 479.674 1738.2 478.018C1738.81 476.362 1739.12 474.568 1739.12 472.635C1739.12 470.703 1738.81 468.902 1738.2 467.234C1737.58 465.565 1736.63 464.216 1735.35 463.187C1734.07 462.158 1732.44 461.644 1730.46 461.644C1728.48 461.644 1726.85 462.158 1725.57 463.187C1724.29 464.216 1723.34 465.565 1722.72 467.234C1722.11 468.902 1721.8 470.703 1721.8 472.635C1721.8 474.568 1722.11 476.362 1722.72 478.018C1723.34 479.674 1724.29 481.011 1725.57 482.027C1726.85 483.043 1728.48 483.551 1730.46 483.551ZM1766.15 480.916L1776.24 458.03H1780.45L1767.96 486.939H1764.34L1752.07 458.03H1756.21L1766.15 480.916ZM1754.78 458.03V486.939H1750.34V458.03H1754.78ZM1777.52 486.939V458.03H1781.96V486.939H1777.52ZM876.56 516.534V512.394H905.469V516.534H893.348V550.939H888.68V516.534H876.56ZM919.999 551.541C917.213 551.541 914.81 550.927 912.79 549.697C910.783 548.455 909.233 546.723 908.141 544.502C907.062 542.269 906.523 539.672 906.523 536.711C906.523 533.749 907.062 531.139 908.141 528.881C909.233 526.61 910.751 524.841 912.696 523.573C914.653 522.294 916.937 521.654 919.547 521.654C921.053 521.654 922.539 521.905 924.007 522.407C925.475 522.908 926.812 523.724 928.016 524.853C929.221 525.97 930.181 527.451 930.896 529.295C931.611 531.139 931.969 533.411 931.969 536.108V537.99H909.685V534.151H927.452C927.452 532.52 927.125 531.064 926.473 529.784C925.833 528.505 924.917 527.494 923.725 526.754C922.546 526.014 921.153 525.644 919.547 525.644C917.778 525.644 916.247 526.083 914.955 526.961C913.675 527.827 912.69 528.956 912 530.349C911.31 531.742 910.964 533.235 910.964 534.828V537.388C910.964 539.571 911.341 541.422 912.094 542.94C912.859 544.446 913.919 545.594 915.275 546.385C916.63 547.162 918.204 547.551 919.999 547.551C921.165 547.551 922.219 547.388 923.161 547.062C924.114 546.723 924.936 546.221 925.626 545.556C926.316 544.879 926.849 544.038 927.226 543.034L931.517 544.239C931.065 545.694 930.306 546.974 929.24 548.078C928.173 549.17 926.856 550.023 925.287 550.638C923.719 551.24 921.956 551.541 919.999 551.541ZM941.262 522.03L948.188 533.85L955.114 522.03H960.233L950.898 536.485L960.233 550.939H955.114L948.188 539.722L941.262 550.939H936.142L945.327 536.485L936.142 522.03H941.262ZM985.919 534.452V538.593H969.959V534.452H985.919ZM971.013 522.03V550.939H966.571V522.03H971.013ZM989.307 522.03V550.939H984.865V522.03H989.307ZM1001.86 544.389L1015.79 522.03H1020.91V550.939H1016.47V528.58L1002.61 550.939H997.419V522.03H1001.86V544.389ZM1051.33 522.03V550.939H1046.89V522.03H1051.33ZM1049.6 535.807V539.948C1048.59 540.324 1047.59 540.657 1046.6 540.945C1045.61 541.221 1044.57 541.441 1043.48 541.604C1042.39 541.755 1041.19 541.83 1039.88 541.83C1036.61 541.83 1033.98 540.945 1032 539.176C1030.03 537.407 1029.04 534.753 1029.04 531.215V521.955H1033.48V531.215C1033.48 532.695 1033.77 533.912 1034.33 534.866C1034.9 535.82 1035.66 536.529 1036.63 536.993C1037.59 537.457 1038.68 537.689 1039.88 537.689C1041.77 537.689 1043.47 537.52 1044.98 537.181C1046.52 536.83 1048.05 536.372 1049.6 535.807ZM1071.6 551.541C1068.81 551.541 1066.41 550.927 1064.39 549.697C1062.38 548.455 1060.83 546.723 1059.74 544.502C1058.66 542.269 1058.12 539.672 1058.12 536.711C1058.12 533.749 1058.66 531.139 1059.74 528.881C1060.83 526.61 1062.35 524.841 1064.29 523.573C1066.25 522.294 1068.54 521.654 1071.15 521.654C1072.65 521.654 1074.14 521.905 1075.61 522.407C1077.07 522.908 1078.41 523.724 1079.61 524.853C1080.82 525.97 1081.78 527.451 1082.49 529.295C1083.21 531.139 1083.57 533.411 1083.57 536.108V537.99H1061.28V534.151H1079.05C1079.05 532.52 1078.72 531.064 1078.07 529.784C1077.43 528.505 1076.52 527.494 1075.32 526.754C1074.14 526.014 1072.75 525.644 1071.15 525.644C1069.38 525.644 1067.85 526.083 1066.55 526.961C1065.27 527.827 1064.29 528.956 1063.6 530.349C1062.91 531.742 1062.56 533.235 1062.56 534.828V537.388C1062.56 539.571 1062.94 541.422 1063.69 542.94C1064.46 544.446 1065.52 545.594 1066.87 546.385C1068.23 547.162 1069.8 547.551 1071.6 547.551C1072.76 547.551 1073.82 547.388 1074.76 547.062C1075.71 546.723 1076.53 546.221 1077.22 545.556C1077.91 544.879 1078.45 544.038 1078.82 543.034L1083.12 544.239C1082.66 545.694 1081.9 546.974 1080.84 548.078C1079.77 549.17 1078.45 550.023 1076.89 550.638C1075.32 551.24 1073.55 551.541 1071.6 551.541ZM1102.07 551.541C1099.36 551.541 1097.02 550.902 1095.07 549.622C1093.11 548.342 1091.6 546.579 1090.55 544.333C1089.5 542.087 1088.97 539.521 1088.97 536.635C1088.97 533.699 1089.51 531.108 1090.59 528.862C1091.68 526.604 1093.2 524.841 1095.14 523.573C1097.1 522.294 1099.38 521.654 1101.99 521.654C1104.03 521.654 1105.86 522.03 1107.49 522.783C1109.12 523.536 1110.46 524.59 1111.5 525.945C1112.54 527.3 1113.19 528.881 1113.44 530.688H1108.99C1108.66 529.37 1107.9 528.203 1106.74 527.187C1105.58 526.158 1104.03 525.644 1102.07 525.644C1100.34 525.644 1098.82 526.095 1097.51 526.999C1096.22 527.89 1095.21 529.151 1094.48 530.782C1093.77 532.401 1093.41 534.301 1093.41 536.485C1093.41 538.718 1093.76 540.663 1094.46 542.319C1095.18 543.975 1096.18 545.262 1097.48 546.177C1098.78 547.093 1100.31 547.551 1102.07 547.551C1103.22 547.551 1104.27 547.351 1105.21 546.949C1106.15 546.548 1106.95 545.97 1107.6 545.218C1108.25 544.465 1108.72 543.561 1108.99 542.507H1113.44C1113.19 544.214 1112.56 545.751 1111.57 547.119C1110.59 548.474 1109.3 549.553 1107.68 550.356C1106.07 551.146 1104.2 551.541 1102.07 551.541ZM1119.93 550.939V522.03H1124.37V534.603H1127.31L1137.7 522.03H1143.42L1131.75 535.958L1143.57 550.939H1137.85L1128.36 538.743H1124.37V550.939H1119.93ZM1158.95 551.541C1156.34 551.541 1154.05 550.92 1152.08 549.678C1150.12 548.436 1148.59 546.698 1147.49 544.465C1146.4 542.231 1145.85 539.622 1145.85 536.635C1145.85 533.624 1146.4 530.995 1147.49 528.749C1148.59 526.503 1150.12 524.759 1152.08 523.517C1154.05 522.275 1156.34 521.654 1158.95 521.654C1161.56 521.654 1163.84 522.275 1165.8 523.517C1167.77 524.759 1169.3 526.503 1170.39 528.749C1171.5 530.995 1172.05 533.624 1172.05 536.635C1172.05 539.622 1171.5 542.231 1170.39 544.465C1169.3 546.698 1167.77 548.436 1165.8 549.678C1163.84 550.92 1161.56 551.541 1158.95 551.541ZM1158.95 547.551C1160.93 547.551 1162.56 547.043 1163.84 546.027C1165.12 545.011 1166.07 543.674 1166.69 542.018C1167.3 540.362 1167.61 538.568 1167.61 536.635C1167.61 534.703 1167.3 532.902 1166.69 531.234C1166.07 529.565 1165.12 528.216 1163.84 527.187C1162.56 526.158 1160.93 525.644 1158.95 525.644C1156.97 525.644 1155.34 526.158 1154.06 527.187C1152.78 528.216 1151.83 529.565 1151.21 531.234C1150.6 532.902 1150.29 534.703 1150.29 536.635C1150.29 538.568 1150.6 540.362 1151.21 542.018C1151.83 543.674 1152.78 545.011 1154.06 546.027C1155.34 547.043 1156.97 547.551 1158.95 547.551ZM1194.64 544.916L1204.73 522.03H1208.94L1196.45 550.939H1192.83L1180.56 522.03H1184.7L1194.64 544.916ZM1183.27 522.03V550.939H1178.83V522.03H1183.27ZM1206.01 550.939V522.03H1210.45V550.939H1206.01ZM1236.12 551.466V547.1H1238.53C1239.46 547.1 1240.24 546.918 1240.86 546.554C1241.5 546.19 1242.03 545.72 1242.45 545.142C1242.87 544.565 1243.22 543.963 1243.5 543.336L1244.1 541.905L1230.78 512.394H1235.82L1246.44 536.334L1256.15 512.394H1261.12L1247.79 544.691C1247.26 545.895 1246.66 547.012 1245.98 548.041C1245.32 549.07 1244.41 549.898 1243.25 550.525C1242.11 551.153 1240.56 551.466 1238.61 551.466H1236.12ZM1283.79 534.452V538.593H1267.83V534.452H1283.79ZM1268.88 522.03V550.939H1264.44V522.03H1268.88ZM1287.17 522.03V550.939H1282.73V522.03H1287.17ZM1299.73 544.389L1313.65 522.03H1318.77V550.939H1314.33V528.58L1300.48 550.939H1295.29V522.03H1299.73V544.389ZM1326.91 550.939V522.03H1338.73C1341.84 522.03 1344.31 522.733 1346.14 524.138C1347.98 525.543 1348.89 527.4 1348.89 529.709C1348.89 531.466 1348.37 532.827 1347.33 533.793C1346.29 534.747 1344.95 535.393 1343.32 535.732C1344.39 535.882 1345.42 536.259 1346.43 536.861C1347.44 537.463 1348.28 538.291 1348.95 539.345C1349.61 540.387 1349.95 541.667 1349.95 543.185C1349.95 544.666 1349.57 545.989 1348.82 547.156C1348.06 548.323 1346.98 549.245 1345.58 549.923C1344.17 550.6 1342.49 550.939 1340.54 550.939H1326.91ZM1331.12 546.874H1340.54C1342.07 546.874 1343.26 546.51 1344.13 545.782C1345 545.055 1345.43 544.063 1345.43 542.809C1345.43 541.315 1345 540.142 1344.13 539.289C1343.26 538.423 1342.07 537.99 1340.54 537.99H1331.12V546.874ZM1331.12 534.151H1338.73C1339.92 534.151 1340.94 533.988 1341.8 533.662C1342.65 533.323 1343.3 532.846 1343.75 532.231C1344.22 531.604 1344.45 530.863 1344.45 530.01C1344.45 528.793 1343.94 527.84 1342.93 527.149C1341.91 526.447 1340.51 526.095 1338.73 526.095H1331.12V534.151ZM1368.79 551.541C1366.01 551.541 1363.6 550.927 1361.58 549.697C1359.57 548.455 1358.02 546.723 1356.93 544.502C1355.85 542.269 1355.31 539.672 1355.31 536.711C1355.31 533.749 1355.85 531.139 1356.93 528.881C1358.02 526.61 1359.54 524.841 1361.49 523.573C1363.45 522.294 1365.73 521.654 1368.34 521.654C1369.84 521.654 1371.33 521.905 1372.8 522.407C1374.27 522.908 1375.6 523.724 1376.81 524.853C1378.01 525.97 1378.97 527.451 1379.69 529.295C1380.4 531.139 1380.76 533.411 1380.76 536.108V537.99H1358.48V534.151H1376.24C1376.24 532.52 1375.92 531.064 1375.27 529.784C1374.63 528.505 1373.71 527.494 1372.52 526.754C1371.34 526.014 1369.94 525.644 1368.34 525.644C1366.57 525.644 1365.04 526.083 1363.75 526.961C1362.47 527.827 1361.48 528.956 1360.79 530.349C1360.1 531.742 1359.76 533.235 1359.76 534.828V537.388C1359.76 539.571 1360.13 541.422 1360.89 542.94C1361.65 544.446 1362.71 545.594 1364.07 546.385C1365.42 547.162 1367 547.551 1368.79 547.551C1369.96 547.551 1371.01 547.388 1371.95 547.062C1372.91 546.723 1373.73 546.221 1374.42 545.556C1375.11 544.879 1375.64 544.038 1376.02 543.034L1380.31 544.239C1379.86 545.694 1379.1 546.974 1378.03 548.078C1376.97 549.17 1375.65 550.023 1374.08 550.638C1372.51 551.24 1370.75 551.541 1368.79 551.541ZM1387.52 561.78V522.03H1391.81V526.622H1392.34C1392.66 526.121 1393.11 525.481 1393.69 524.703C1394.28 523.912 1395.12 523.21 1396.21 522.595C1397.32 521.967 1398.81 521.654 1400.69 521.654C1403.13 521.654 1405.27 522.262 1407.13 523.479C1408.99 524.696 1410.44 526.422 1411.48 528.655C1412.52 530.889 1413.04 533.523 1413.04 536.56C1413.04 539.622 1412.52 542.275 1411.48 544.521C1410.44 546.755 1408.99 548.486 1407.15 549.716C1405.3 550.933 1403.18 551.541 1400.77 551.541C1398.91 551.541 1397.42 551.234 1396.31 550.619C1395.19 549.992 1394.33 549.283 1393.73 548.492C1393.13 547.689 1392.66 547.024 1392.34 546.497H1391.96V561.78H1387.52ZM1391.88 536.485C1391.88 538.668 1392.2 540.594 1392.84 542.263C1393.48 543.919 1394.42 545.218 1395.65 546.159C1396.88 547.087 1398.38 547.551 1400.17 547.551C1402.02 547.551 1403.57 547.062 1404.81 546.083C1406.07 545.092 1407.01 543.762 1407.64 542.093C1408.28 540.412 1408.6 538.542 1408.6 536.485C1408.6 534.452 1408.28 532.62 1407.66 530.989C1407.04 529.345 1406.11 528.047 1404.85 527.093C1403.61 526.127 1402.05 525.644 1400.17 525.644C1398.36 525.644 1396.84 526.102 1395.61 527.018C1394.38 527.921 1393.45 529.188 1392.83 530.82C1392.2 532.438 1391.88 534.327 1391.88 536.485ZM1431.56 551.541C1428.85 551.541 1426.51 550.902 1424.56 549.622C1422.6 548.342 1421.09 546.579 1420.04 544.333C1418.99 542.087 1418.46 539.521 1418.46 536.635C1418.46 533.699 1419 531.108 1420.08 528.862C1421.17 526.604 1422.69 524.841 1424.63 523.573C1426.59 522.294 1428.87 521.654 1431.48 521.654C1433.52 521.654 1435.35 522.03 1436.98 522.783C1438.61 523.536 1439.95 524.59 1440.99 525.945C1442.03 527.3 1442.68 528.881 1442.93 530.688H1438.48C1438.15 529.37 1437.39 528.203 1436.23 527.187C1435.07 526.158 1433.52 525.644 1431.56 525.644C1429.83 525.644 1428.31 526.095 1427 526.999C1425.71 527.89 1424.7 529.151 1423.97 530.782C1423.26 532.401 1422.9 534.301 1422.9 536.485C1422.9 538.718 1423.25 540.663 1423.95 542.319C1424.67 543.975 1425.67 545.262 1426.97 546.177C1428.27 547.093 1429.8 547.551 1431.56 547.551C1432.71 547.551 1433.76 547.351 1434.7 546.949C1435.64 546.548 1436.44 545.97 1437.09 545.218C1437.74 544.465 1438.21 543.561 1438.48 542.507H1442.93C1442.68 544.214 1442.05 545.751 1441.06 547.119C1440.08 548.474 1438.79 549.553 1437.17 550.356C1435.56 551.146 1433.69 551.541 1431.56 551.541ZM1453.86 544.389L1467.79 522.03H1472.91V550.939H1468.47V528.58L1454.61 550.939H1449.42V522.03H1453.86V544.389ZM1477.11 526.171V522.03H1500.6V526.171H1491.11V550.939H1486.67V526.171H1477.11ZM1517.7 551.541C1514.91 551.541 1512.51 550.927 1510.49 549.697C1508.48 548.455 1506.93 546.723 1505.84 544.502C1504.76 542.269 1504.22 539.672 1504.22 536.711C1504.22 533.749 1504.76 531.139 1505.84 528.881C1506.93 526.61 1508.45 524.841 1510.4 523.573C1512.35 522.294 1514.64 521.654 1517.25 521.654C1518.75 521.654 1520.24 521.905 1521.71 522.407C1523.17 522.908 1524.51 523.724 1525.72 524.853C1526.92 525.97 1527.88 527.451 1528.6 529.295C1529.31 531.139 1529.67 533.411 1529.67 536.108V537.99H1507.38V534.151H1525.15C1525.15 532.52 1524.82 531.064 1524.17 529.784C1523.53 528.505 1522.62 527.494 1521.42 526.754C1520.24 526.014 1518.85 525.644 1517.25 525.644C1515.48 525.644 1513.95 526.083 1512.65 526.961C1511.37 527.827 1510.39 528.956 1509.7 530.349C1509.01 531.742 1508.66 533.235 1508.66 534.828V537.388C1508.66 539.571 1509.04 541.422 1509.79 542.94C1510.56 544.446 1511.62 545.594 1512.97 546.385C1514.33 547.162 1515.9 547.551 1517.7 547.551C1518.86 547.551 1519.92 547.388 1520.86 547.062C1521.81 546.723 1522.64 546.221 1523.33 545.556C1524.02 544.879 1524.55 544.038 1524.93 543.034L1529.22 544.239C1528.76 545.694 1528.01 546.974 1526.94 548.078C1525.87 549.17 1524.55 550.023 1522.99 550.638C1521.42 551.24 1519.66 551.541 1517.7 551.541ZM1533.73 526.171V522.03H1557.22V526.171H1547.74V550.939H1543.29V526.171H1533.73ZM1574.32 551.541C1571.54 551.541 1569.13 550.927 1567.11 549.697C1565.1 548.455 1563.56 546.723 1562.46 544.502C1561.38 542.269 1560.84 539.672 1560.84 536.711C1560.84 533.749 1561.38 531.139 1562.46 528.881C1563.56 526.61 1565.07 524.841 1567.02 523.573C1568.98 522.294 1571.26 521.654 1573.87 521.654C1575.37 521.654 1576.86 521.905 1578.33 522.407C1579.8 522.908 1581.13 523.724 1582.34 524.853C1583.54 525.97 1584.5 527.451 1585.22 529.295C1585.93 531.139 1586.29 533.411 1586.29 536.108V537.99H1564.01V534.151H1581.77C1581.77 532.52 1581.45 531.064 1580.8 529.784C1580.16 528.505 1579.24 527.494 1578.05 526.754C1576.87 526.014 1575.48 525.644 1573.87 525.644C1572.1 525.644 1570.57 526.083 1569.28 526.961C1568 527.827 1567.01 528.956 1566.32 530.349C1565.63 531.742 1565.29 533.235 1565.29 534.828V537.388C1565.29 539.571 1565.66 541.422 1566.42 542.94C1567.18 544.446 1568.24 545.594 1569.6 546.385C1570.95 547.162 1572.53 547.551 1574.32 547.551C1575.49 547.551 1576.54 547.388 1577.48 547.062C1578.44 546.723 1579.26 546.221 1579.95 545.556C1580.64 544.879 1581.17 544.038 1581.55 543.034L1585.84 544.239C1585.39 545.694 1584.63 546.974 1583.56 548.078C1582.5 549.17 1581.18 550.023 1579.61 550.638C1578.04 551.24 1576.28 551.541 1574.32 551.541ZM882.507 608.389L896.435 586.03H901.554V614.939H897.112V592.58L883.26 614.939H878.065V586.03H882.507V608.389ZM925.499 608.916L935.587 586.03H939.803L927.306 614.939H923.692L911.421 586.03H915.562L925.499 608.916ZM914.131 586.03V614.939H909.689V586.03H914.131ZM936.867 614.939V586.03H941.309V614.939H936.867ZM952.677 615.24C951.748 615.24 950.951 614.908 950.286 614.243C949.621 613.578 949.289 612.781 949.289 611.853C949.289 610.924 949.621 610.127 950.286 609.462C950.951 608.797 951.748 608.465 952.677 608.465C953.605 608.465 954.402 608.797 955.067 609.462C955.732 610.127 956.064 610.924 956.064 611.853C956.064 612.467 955.908 613.032 955.594 613.546C955.293 614.061 954.885 614.475 954.37 614.789C953.869 615.09 953.304 615.24 952.677 615.24ZM979.544 576.394H984.136V606.733H984.512L1005.59 576.394H1010.11V614.939H1005.44V584.675H1005.06L984.061 614.939H979.544V576.394ZM1022.08 615.24C1021.16 615.24 1020.36 614.908 1019.69 614.243C1019.03 613.578 1018.7 612.781 1018.7 611.853C1018.7 610.924 1019.03 610.127 1019.69 609.462C1020.36 608.797 1021.16 608.465 1022.08 608.465C1023.01 608.465 1023.81 608.797 1024.47 609.462C1025.14 610.127 1025.47 610.924 1025.47 611.853C1025.47 612.467 1025.31 613.032 1025 613.546C1024.7 614.061 1024.29 614.475 1023.78 614.789C1023.28 615.09 1022.71 615.24 1022.08 615.24ZM1048.95 614.939V576.394H1061.97C1065 576.394 1067.47 576.94 1069.39 578.031C1071.32 579.11 1072.75 580.572 1073.68 582.416C1074.61 584.261 1075.07 586.319 1075.07 588.59C1075.07 590.861 1074.61 592.925 1073.68 594.782C1072.77 596.639 1071.35 598.119 1069.43 599.224C1067.51 600.315 1065.05 600.861 1062.05 600.861H1052.72V596.72H1061.9C1063.97 596.72 1065.63 596.363 1066.89 595.648C1068.14 594.932 1069.05 593.966 1069.62 592.749C1070.19 591.52 1070.48 590.133 1070.48 588.59C1070.48 587.046 1070.19 585.666 1069.62 584.449C1069.05 583.232 1068.14 582.278 1066.87 581.588C1065.6 580.886 1063.92 580.534 1061.82 580.534H1053.62V614.939H1048.95ZM1090.5 615.617C1088.67 615.617 1087 615.272 1085.51 614.582C1084.02 613.879 1082.83 612.869 1081.95 611.551C1081.08 610.221 1080.64 608.615 1080.64 606.733C1080.64 605.077 1080.96 603.734 1081.61 602.706C1082.27 601.664 1083.14 600.849 1084.23 600.259C1085.32 599.669 1086.53 599.23 1087.84 598.941C1089.17 598.64 1090.51 598.402 1091.85 598.226C1093.61 598 1095.03 597.831 1096.13 597.718C1097.23 597.592 1098.03 597.385 1098.53 597.097C1099.05 596.808 1099.31 596.306 1099.31 595.591V595.441C1099.31 593.584 1098.8 592.141 1097.78 591.112C1096.78 590.083 1095.25 589.568 1093.21 589.568C1091.09 589.568 1089.43 590.033 1088.22 590.961C1087.02 591.89 1086.17 592.881 1085.68 593.935L1081.46 592.429C1082.22 590.673 1083.22 589.305 1084.48 588.326C1085.74 587.335 1087.12 586.645 1088.62 586.256C1090.12 585.854 1091.6 585.654 1093.06 585.654C1093.99 585.654 1095.05 585.767 1096.26 585.992C1097.47 586.206 1098.65 586.651 1099.78 587.329C1100.92 588.006 1101.87 589.029 1102.62 590.397C1103.37 591.764 1103.75 593.596 1103.75 595.892V614.939H1099.31V611.024H1099.08C1098.78 611.652 1098.28 612.323 1097.57 613.038C1096.87 613.753 1095.94 614.362 1094.77 614.864C1093.6 615.366 1092.18 615.617 1090.5 615.617ZM1091.18 611.627C1092.93 611.627 1094.41 611.282 1095.62 610.592C1096.83 609.901 1097.75 609.011 1098.37 607.919C1098.99 606.827 1099.31 605.679 1099.31 604.475V600.409C1099.12 600.635 1098.7 600.842 1098.06 601.03C1097.44 601.206 1096.71 601.363 1095.88 601.501C1095.07 601.626 1094.27 601.739 1093.49 601.84C1092.73 601.928 1092.1 602.003 1091.63 602.066C1090.47 602.216 1089.39 602.461 1088.39 602.8C1087.4 603.126 1086.6 603.622 1085.98 604.287C1085.38 604.939 1085.08 605.83 1085.08 606.959C1085.08 608.502 1085.65 609.669 1086.79 610.46C1087.94 611.238 1089.41 611.627 1091.18 611.627ZM1110.05 607.561H1114.79C1114.89 608.866 1115.48 609.858 1116.56 610.535C1117.65 611.213 1119.07 611.551 1120.81 611.551C1122.6 611.551 1124.12 611.188 1125.39 610.46C1126.65 609.72 1127.29 608.528 1127.29 606.884C1127.29 605.918 1127.05 605.077 1126.57 604.362C1126.1 603.634 1125.43 603.069 1124.56 602.668C1123.69 602.266 1122.67 602.066 1121.49 602.066H1116.52V598.076H1121.49C1123.26 598.076 1124.57 597.674 1125.41 596.871C1126.26 596.068 1126.69 595.064 1126.69 593.86C1126.69 592.567 1126.23 591.532 1125.31 590.754C1124.4 589.964 1123.1 589.568 1121.42 589.568C1119.72 589.568 1118.31 589.951 1117.18 590.717C1116.05 591.469 1115.46 592.442 1115.39 593.634H1110.73C1110.78 592.078 1111.25 590.704 1112.16 589.512C1113.06 588.307 1114.29 587.366 1115.85 586.689C1117.4 585.999 1119.18 585.654 1121.19 585.654C1123.22 585.654 1124.99 586.011 1126.48 586.726C1127.98 587.429 1129.15 588.389 1129.96 589.606C1130.79 590.811 1131.2 592.178 1131.2 593.709C1131.2 595.34 1130.75 596.658 1129.83 597.662C1128.91 598.665 1127.77 599.38 1126.39 599.807V600.108C1127.48 600.184 1128.42 600.535 1129.23 601.162C1130.04 601.777 1130.68 602.586 1131.13 603.59C1131.58 604.581 1131.81 605.679 1131.81 606.884C1131.81 608.64 1131.34 610.171 1130.39 611.476C1129.45 612.769 1128.16 613.772 1126.52 614.488C1124.87 615.19 1123 615.541 1120.89 615.541C1118.84 615.541 1117.01 615.209 1115.39 614.544C1113.78 613.866 1112.49 612.932 1111.54 611.74C1110.59 610.535 1110.1 609.142 1110.05 607.561ZM1136.24 607.561H1140.98C1141.08 608.866 1141.67 609.858 1142.75 610.535C1143.84 611.213 1145.26 611.551 1147 611.551C1148.79 611.551 1150.31 611.188 1151.58 610.46C1152.84 609.72 1153.48 608.528 1153.48 606.884C1153.48 605.918 1153.24 605.077 1152.76 604.362C1152.29 603.634 1151.61 603.069 1150.75 602.668C1149.88 602.266 1148.86 602.066 1147.68 602.066H1142.71V598.076H1147.68C1149.45 598.076 1150.76 597.674 1151.6 596.871C1152.45 596.068 1152.88 595.064 1152.88 593.86C1152.88 592.567 1152.42 591.532 1151.5 590.754C1150.59 589.964 1149.29 589.568 1147.61 589.568C1145.91 589.568 1144.5 589.951 1143.37 590.717C1142.24 591.469 1141.65 592.442 1141.58 593.634H1136.92C1136.97 592.078 1137.44 590.704 1138.35 589.512C1139.25 588.307 1140.48 587.366 1142.03 586.689C1143.59 585.999 1145.37 585.654 1147.38 585.654C1149.41 585.654 1151.18 586.011 1152.67 586.726C1154.17 587.429 1155.34 588.389 1156.15 589.606C1156.98 590.811 1157.39 592.178 1157.39 593.709C1157.39 595.34 1156.93 596.658 1156.02 597.662C1155.1 598.665 1153.95 599.38 1152.57 599.807V600.108C1153.67 600.184 1154.61 600.535 1155.42 601.162C1156.23 601.777 1156.87 602.586 1157.32 603.59C1157.77 604.581 1158 605.679 1158 606.884C1158 608.64 1157.52 610.171 1156.58 611.476C1155.64 612.769 1154.35 613.772 1152.71 614.488C1151.06 615.19 1149.19 615.541 1147.08 615.541C1145.03 615.541 1143.2 615.209 1141.58 614.544C1139.96 613.866 1138.68 612.932 1137.72 611.74C1136.78 610.535 1136.29 609.142 1136.24 607.561ZM1172.74 615.617C1170.91 615.617 1169.25 615.272 1167.75 614.582C1166.26 613.879 1165.07 612.869 1164.2 611.551C1163.32 610.221 1162.88 608.615 1162.88 606.733C1162.88 605.077 1163.21 603.734 1163.86 602.706C1164.51 601.664 1165.38 600.849 1166.47 600.259C1167.57 599.669 1168.77 599.23 1170.09 598.941C1171.42 598.64 1172.75 598.402 1174.1 598.226C1175.85 598 1177.28 597.831 1178.37 597.718C1179.47 597.592 1180.28 597.385 1180.78 597.097C1181.29 596.808 1181.55 596.306 1181.55 595.591V595.441C1181.55 593.584 1181.04 592.141 1180.03 591.112C1179.02 590.083 1177.5 589.568 1175.45 589.568C1173.33 589.568 1171.67 590.033 1170.46 590.961C1169.26 591.89 1168.41 592.881 1167.92 593.935L1163.71 592.429C1164.46 590.673 1165.46 589.305 1166.72 588.326C1167.99 587.335 1169.37 586.645 1170.86 586.256C1172.36 585.854 1173.85 585.654 1175.3 585.654C1176.23 585.654 1177.3 585.767 1178.5 585.992C1179.72 586.206 1180.89 586.651 1182.02 587.329C1183.16 588.006 1184.11 589.029 1184.86 590.397C1185.61 591.764 1185.99 593.596 1185.99 595.892V614.939H1181.55V611.024H1181.32C1181.02 611.652 1180.52 612.323 1179.82 613.038C1179.12 613.753 1178.18 614.362 1177.01 614.864C1175.85 615.366 1174.42 615.617 1172.74 615.617ZM1173.42 611.627C1175.18 611.627 1176.66 611.282 1177.86 610.592C1179.08 609.901 1179.99 609.011 1180.61 607.919C1181.24 606.827 1181.55 605.679 1181.55 604.475V600.409C1181.36 600.635 1180.95 600.842 1180.31 601.03C1179.68 601.206 1178.95 601.363 1178.12 601.501C1177.31 601.626 1176.51 601.739 1175.73 601.84C1174.97 601.928 1174.35 602.003 1173.87 602.066C1172.72 602.216 1171.64 602.461 1170.63 602.8C1169.64 603.126 1168.84 603.622 1168.22 604.287C1167.62 604.939 1167.32 605.83 1167.32 606.959C1167.32 608.502 1167.89 609.669 1169.03 610.46C1170.19 611.238 1171.65 611.627 1173.42 611.627ZM1194.1 614.939V586.03H1198.54V598.603H1201.48L1211.87 586.03H1217.59L1205.92 599.958L1217.74 614.939H1212.02L1202.53 602.743H1198.54V614.939H1194.1ZM1233.12 615.541C1230.51 615.541 1228.22 614.92 1226.25 613.678C1224.29 612.436 1222.76 610.698 1221.66 608.465C1220.57 606.231 1220.02 603.622 1220.02 600.635C1220.02 597.624 1220.57 594.995 1221.66 592.749C1222.76 590.503 1224.29 588.759 1226.25 587.517C1228.22 586.275 1230.51 585.654 1233.12 585.654C1235.73 585.654 1238.01 586.275 1239.97 587.517C1241.94 588.759 1243.47 590.503 1244.56 592.749C1245.67 594.995 1246.22 597.624 1246.22 600.635C1246.22 603.622 1245.67 606.231 1244.56 608.465C1243.47 610.698 1241.94 612.436 1239.97 613.678C1238.01 614.92 1235.73 615.541 1233.12 615.541ZM1233.12 611.551C1235.1 611.551 1236.73 611.043 1238.01 610.027C1239.29 609.011 1240.24 607.674 1240.85 606.018C1241.47 604.362 1241.78 602.568 1241.78 600.635C1241.78 598.703 1241.47 596.902 1240.85 595.234C1240.24 593.565 1239.29 592.216 1238.01 591.187C1236.73 590.158 1235.1 589.644 1233.12 589.644C1231.14 589.644 1229.51 590.158 1228.23 591.187C1226.95 592.216 1226 593.565 1225.38 595.234C1224.77 596.902 1224.46 598.703 1224.46 600.635C1224.46 602.568 1224.77 604.362 1225.38 606.018C1226 607.674 1226.95 609.011 1228.23 610.027C1229.51 611.043 1231.14 611.551 1233.12 611.551ZM1253 614.939V586.03H1264.82C1267.93 586.03 1270.4 586.733 1272.23 588.138C1274.07 589.543 1274.98 591.4 1274.98 593.709C1274.98 595.466 1274.46 596.827 1273.42 597.793C1272.38 598.747 1271.04 599.393 1269.41 599.732C1270.48 599.882 1271.51 600.259 1272.52 600.861C1273.53 601.463 1274.37 602.291 1275.04 603.345C1275.7 604.387 1276.04 605.667 1276.04 607.185C1276.04 608.666 1275.66 609.989 1274.91 611.156C1274.15 612.323 1273.07 613.245 1271.67 613.923C1270.26 614.6 1268.58 614.939 1266.63 614.939H1253ZM1257.21 610.874H1266.63C1268.16 610.874 1269.35 610.51 1270.22 609.782C1271.09 609.055 1271.52 608.063 1271.52 606.809C1271.52 605.315 1271.09 604.142 1270.22 603.289C1269.35 602.423 1268.16 601.99 1266.63 601.99H1257.21V610.874ZM1257.21 598.151H1264.82C1266.01 598.151 1267.03 597.988 1267.89 597.662C1268.74 597.323 1269.39 596.846 1269.84 596.231C1270.31 595.604 1270.54 594.863 1270.54 594.01C1270.54 592.793 1270.03 591.84 1269.02 591.149C1268 590.447 1266.6 590.095 1264.82 590.095H1257.21V598.151ZM1291.27 615.617C1289.43 615.617 1287.77 615.272 1286.28 614.582C1284.79 613.879 1283.6 612.869 1282.72 611.551C1281.84 610.221 1281.4 608.615 1281.4 606.733C1281.4 605.077 1281.73 603.734 1282.38 602.706C1283.04 601.664 1283.91 600.849 1285 600.259C1286.09 599.669 1287.3 599.23 1288.61 598.941C1289.94 598.64 1291.28 598.402 1292.62 598.226C1294.38 598 1295.8 597.831 1296.89 597.718C1298 597.592 1298.8 597.385 1299.3 597.097C1299.82 596.808 1300.08 596.306 1300.08 595.591V595.441C1300.08 593.584 1299.57 592.141 1298.55 591.112C1297.55 590.083 1296.02 589.568 1293.98 589.568C1291.86 589.568 1290.19 590.033 1288.99 590.961C1287.78 591.89 1286.94 592.881 1286.45 593.935L1282.23 592.429C1282.99 590.673 1283.99 589.305 1285.24 588.326C1286.51 587.335 1287.89 586.645 1289.38 586.256C1290.89 585.854 1292.37 585.654 1293.83 585.654C1294.75 585.654 1295.82 585.767 1297.03 585.992C1298.24 586.206 1299.42 586.651 1300.55 587.329C1301.69 588.006 1302.63 589.029 1303.39 590.397C1304.14 591.764 1304.52 593.596 1304.52 595.892V614.939H1300.08V611.024H1299.85C1299.55 611.652 1299.05 612.323 1298.34 613.038C1297.64 613.753 1296.71 614.362 1295.54 614.864C1294.37 615.366 1292.95 615.617 1291.27 615.617ZM1291.94 611.627C1293.7 611.627 1295.18 611.282 1296.39 610.592C1297.6 609.901 1298.52 609.011 1299.13 607.919C1299.76 606.827 1300.08 605.679 1300.08 604.475V600.409C1299.89 600.635 1299.47 600.842 1298.83 601.03C1298.21 601.206 1297.48 601.363 1296.65 601.501C1295.83 601.626 1295.04 601.739 1294.26 601.84C1293.49 601.928 1292.87 602.003 1292.4 602.066C1291.24 602.216 1290.16 602.461 1289.16 602.8C1288.17 603.126 1287.36 603.622 1286.75 604.287C1286.15 604.939 1285.85 605.83 1285.85 606.959C1285.85 608.502 1286.42 609.669 1287.56 610.46C1288.71 611.238 1290.18 611.627 1291.94 611.627Z" fill="#030E1B" />
	<path d="M1173.38 0.939209V277.137L1156.98 260.721H1227.52V371.939H1177.07V300.94L1201.68 308.738H874V0.939209H928.135V277.137L911.731 260.721H1136.06L1119.66 277.137V0.939209H1173.38Z" fill="#1A73E3" />
	<path d="M1354.13 25.9735H1408.26V308.738H1354.13V25.9735ZM1226.99 0.939209H1535.4V48.5454H1226.99V0.939209Z" fill="#1A73E3" />
	<path d="M1675.73 25.9735H1729.86V308.738H1675.73V25.9735ZM1548.59 0.939209H1857V48.5454H1548.59V0.939209Z" fill="#1A73E3" />
</svg>
